<?xml version="1.0" encoding="UTF-8" standalone="no"?>
<!-- Created with Inkscape (http://www.inkscape.org/) -->

<svg
   xmlns:dc="http://purl.org/dc/elements/1.1/"
   xmlns:cc="http://creativecommons.org/ns#"
   xmlns:rdf="http://www.w3.org/1999/02/22-rdf-syntax-ns#"
   xmlns:svg="http://www.w3.org/2000/svg"
   xmlns="http://www.w3.org/2000/svg"
   xmlns:xlink="http://www.w3.org/1999/xlink"
   xmlns:sodipodi="http://sodipodi.sourceforge.net/DTD/sodipodi-0.dtd"
   xmlns:inkscape="http://www.inkscape.org/namespaces/inkscape"
   version="1.1"
   id="svg2"
   xml:space="preserve"
   width="377.34668"
   height="330"
   viewBox="0 0 377.34668 330"
   sodipodi:docname="contact.svg"
   inkscape:version="0.92.3 (2405546, 2018-03-11)"><metadata
     id="metadata8"><rdf:RDF><cc:Work
         rdf:about=""><dc:format>image/svg+xml</dc:format><dc:type
           rdf:resource="http://purl.org/dc/dcmitype/StillImage" /><dc:title></dc:title></cc:Work></rdf:RDF></metadata><defs
     id="defs6"><linearGradient
       inkscape:collect="always"
       id="linearGradient5788"><stop
         style="stop-color:#000000;stop-opacity:1;"
         offset="0"
         id="stop5784" /><stop
         style="stop-color:#000000;stop-opacity:0;"
         offset="1"
         id="stop5786" /></linearGradient><linearGradient
       inkscape:collect="always"
       id="linearGradient4694"><stop
         style="stop-color:#328bfe;stop-opacity:1"
         offset="0"
         id="stop4690" /><stop
         style="stop-color:#7ab1fe;stop-opacity:1"
         offset="1"
         id="stop4692" /></linearGradient><linearGradient
       inkscape:collect="always"
       id="linearGradient4684"><stop
         style="stop-color:#0270ea;stop-opacity:1"
         offset="0"
         id="stop4680" /><stop
         style="stop-color:#1985fd;stop-opacity:1"
         offset="1"
         id="stop4682" /></linearGradient><clipPath
       clipPathUnits="userSpaceOnUse"
       id="clipPath20"><path
         d="m 2600.97,1616 c 0,-48.55 -371.92,-87.89 -830.67,-87.89 -458.75,0 -830.652,39.34 -830.652,87.89 0,48.53 371.902,87.88 830.652,87.88 458.75,0 830.67,-39.35 830.67,-87.88"
         id="path18"
         inkscape:connector-curvature="0" /></clipPath><clipPath
       clipPathUnits="userSpaceOnUse"
       id="clipPath34"><path
         d="m 2427.62,2138.96 -840.5,-377.75 204.51,377.75 h 635.99"
         id="path32"
         inkscape:connector-curvature="0" /></clipPath><clipPath
       clipPathUnits="userSpaceOnUse"
       id="clipPath52"><path
         d="M 142.715,3628.43 2574.34,3517.36 2427.62,2138.96 317.863,2067.25 142.715,3628.43"
         id="path50"
         inkscape:connector-curvature="0" /></clipPath><clipPath
       clipPathUnits="userSpaceOnUse"
       id="clipPath62"><path
         d="m 0,3451.78 142.715,176.65 175.148,-1561.18 -115.761,113 L 0,3451.78"
         id="path60"
         inkscape:connector-curvature="0" /></clipPath><clipPath
       clipPathUnits="userSpaceOnUse"
       id="clipPath72"><path
         d="m 2399.27,3523.31 -35.92,-312.4 h -215.3 l 32.59,324.43 218.63,-12.03"
         id="path70"
         inkscape:connector-curvature="0" /></clipPath><clipPath
       clipPathUnits="userSpaceOnUse"
       id="clipPath82"><path
         d="m 2415.89,3241.65 h -215.3 l 30.76,409.85 215.31,-75.89 -30.77,-333.96"
         id="path80"
         inkscape:connector-curvature="0" /></clipPath><clipPath
       clipPathUnits="userSpaceOnUse"
       id="clipPath388"><path
         d="M 841.746,24.5117 C 841.746,10.9766 739.395,0 613.113,0 486.855,0 384.484,10.9766 384.484,24.5117 c 0,13.5352 102.371,24.5 228.629,24.5 126.282,0 228.633,-10.9648 228.633,-24.5"
         id="path386"
         inkscape:connector-curvature="0" /></clipPath><clipPath
       clipPathUnits="userSpaceOnUse"
       id="clipPath402"><path
         d="M 794.043,170.34 562.695,65.0078 618.992,170.34 h 175.051"
         id="path400"
         inkscape:connector-curvature="0" /></clipPath><clipPath
       clipPathUnits="userSpaceOnUse"
       id="clipPath420"><path
         d="M 165.137,585.672 834.426,554.695 794.043,170.34 213.34,150.352 165.137,585.672"
         id="path418"
         inkscape:connector-curvature="0" /></clipPath><clipPath
       clipPathUnits="userSpaceOnUse"
       id="clipPath430"><path
         d="m 125.859,536.418 39.278,49.254 48.203,-435.32 -31.856,31.503 -55.625,354.563"
         id="path428"
         inkscape:connector-curvature="0" /></clipPath><clipPath
       clipPathUnits="userSpaceOnUse"
       id="clipPath440"><path
         d="M 786.238,556.355 776.359,469.25 H 717.09 l 8.984,90.465 60.164,-3.36"
         id="path438"
         inkscape:connector-curvature="0" /></clipPath><clipPath
       clipPathUnits="userSpaceOnUse"
       id="clipPath450"><path
         d="m 790.82,477.82 h -59.257 l 8.464,114.289 59.25,-21.164 -8.457,-93.125"
         id="path448"
         inkscape:connector-curvature="0" /></clipPath><clipPath
       clipPathUnits="userSpaceOnUse"
       id="clipPath756"><path
         d="M 1825.61,24.5117 C 1825.61,10.9766 1723.25,0 1596.96,0 1470.7,0 1368.33,10.9766 1368.33,24.5117 c 0,13.5352 102.37,24.5117 228.63,24.5117 126.29,0 228.65,-10.9765 228.65,-24.5117"
         id="path754"
         inkscape:connector-curvature="0" /></clipPath><clipPath
       clipPathUnits="userSpaceOnUse"
       id="clipPath770"><path
         d="M 1777.9,170.34 1546.54,65.0078 1602.84,170.34 h 175.06"
         id="path768"
         inkscape:connector-curvature="0" /></clipPath><clipPath
       clipPathUnits="userSpaceOnUse"
       id="clipPath788"><path
         d="m 1148.98,585.672 669.3,-30.977 -40.38,-384.355 -580.71,-19.988 -48.21,435.32"
         id="path786"
         inkscape:connector-curvature="0" /></clipPath><clipPath
       clipPathUnits="userSpaceOnUse"
       id="clipPath798"><path
         d="m 1109.71,536.418 39.27,49.254 48.21,-435.32 -31.86,31.503 -55.62,354.563"
         id="path796"
         inkscape:connector-curvature="0" /></clipPath><clipPath
       clipPathUnits="userSpaceOnUse"
       id="clipPath808"><path
         d="m 1770.09,556.355 -9.88,-87.105 h -59.26 l 8.97,90.465 60.17,-3.36"
         id="path806"
         inkscape:connector-curvature="0" /></clipPath><clipPath
       clipPathUnits="userSpaceOnUse"
       id="clipPath818"><path
         d="m 1774.68,477.82 h -59.27 l 8.48,114.289 59.24,-21.164 -8.45,-93.125"
         id="path816"
         inkscape:connector-curvature="0" /></clipPath><clipPath
       clipPathUnits="userSpaceOnUse"
       id="clipPath1124"><path
         d="M 2809.45,24.5 C 2809.45,10.9648 2707.09,0 2580.81,0 c -126.26,0 -228.63,10.9648 -228.63,24.5 0,13.5352 102.37,24.5117 228.63,24.5117 126.28,0 228.64,-10.9765 228.64,-24.5117"
         id="path1122"
         inkscape:connector-curvature="0" /></clipPath><clipPath
       clipPathUnits="userSpaceOnUse"
       id="clipPath1138"><path
         d="M 2761.73,170.332 2530.39,65 l 56.3,105.332 h 175.04"
         id="path1136"
         inkscape:connector-curvature="0" /></clipPath><clipPath
       clipPathUnits="userSpaceOnUse"
       id="clipPath1156"><path
         d="m 2132.82,585.664 669.29,-30.969 -40.38,-384.363 -580.69,-19.992 -48.22,435.324"
         id="path1154"
         inkscape:connector-curvature="0" /></clipPath><clipPath
       clipPathUnits="userSpaceOnUse"
       id="clipPath1166"><path
         d="m 2093.55,536.406 39.27,49.258 48.22,-435.324 -31.87,31.504 -55.62,354.562"
         id="path1164"
         inkscape:connector-curvature="0" /></clipPath><clipPath
       clipPathUnits="userSpaceOnUse"
       id="clipPath1176"><path
         d="m 2753.93,556.355 -9.89,-87.105 h -59.25 l 8.97,90.457 60.17,-3.352"
         id="path1174"
         inkscape:connector-curvature="0" /></clipPath><clipPath
       clipPathUnits="userSpaceOnUse"
       id="clipPath1186"><path
         d="m 2758.52,477.813 h -59.27 l 8.46,114.296 59.25,-21.171 -8.44,-93.125"
         id="path1184"
         inkscape:connector-curvature="0" /></clipPath><clipPath
       clipPathUnits="userSpaceOnUse"
       id="clipPath1492"><path
         d="m 841.746,862.684 c 0,-13.536 -102.351,-24.512 -228.621,-24.512 -126.27,0 -228.633,10.976 -228.633,24.512 0,13.535 102.363,24.504 228.633,24.504 126.27,0 228.621,-10.969 228.621,-24.504"
         id="path1490"
         inkscape:connector-curvature="0" /></clipPath><clipPath
       clipPathUnits="userSpaceOnUse"
       id="clipPath1506"><path
         d="M 794.043,1008.52 562.695,903.184 617.703,1008.52 h 176.34"
         id="path1504"
         inkscape:connector-curvature="0" /></clipPath><clipPath
       clipPathUnits="userSpaceOnUse"
       id="clipPath1524"><path
         d="M 165.137,1423.85 834.426,1392.87 794.043,1008.52 213.352,988.516 165.137,1423.85"
         id="path1522"
         inkscape:connector-curvature="0" /></clipPath><clipPath
       clipPathUnits="userSpaceOnUse"
       id="clipPath1534"><path
         d="m 125.859,1374.59 39.278,49.26 48.215,-435.334 -31.868,31.514 -55.625,354.56"
         id="path1532"
         inkscape:connector-curvature="0" /></clipPath><clipPath
       clipPathUnits="userSpaceOnUse"
       id="clipPath1544"><path
         d="m 786.613,1395.09 -10.254,-87.67 H 717.09 l 8.984,90.47 60.539,-2.8"
         id="path1542"
         inkscape:connector-curvature="0" /></clipPath><clipPath
       clipPathUnits="userSpaceOnUse"
       id="clipPath1554"><path
         d="m 790.82,1316 h -59.257 l 8.464,114.28 59.258,-21.16 -8.465,-93.12"
         id="path1552"
         inkscape:connector-curvature="0" /></clipPath><clipPath
       clipPathUnits="userSpaceOnUse"
       id="clipPath1860"><path
         d="m 1825.61,862.676 c 0,-13.535 -102.36,-24.504 -228.64,-24.504 -126.27,0 -228.63,10.969 -228.63,24.504 0,13.535 102.36,24.512 228.63,24.512 126.28,0 228.64,-10.977 228.64,-24.512"
         id="path1858"
         inkscape:connector-curvature="0" /></clipPath><clipPath
       clipPathUnits="userSpaceOnUse"
       id="clipPath1874"><path
         d="m 1777.9,1008.5 -231.36,-105.328 56.3,105.328 h 175.06"
         id="path1872"
         inkscape:connector-curvature="0" /></clipPath><clipPath
       clipPathUnits="userSpaceOnUse"
       id="clipPath1892"><path
         d="m 1148.98,1423.84 669.3,-30.97 -40.38,-384.37 -580.7,-19.984 -48.22,435.324"
         id="path1890"
         inkscape:connector-curvature="0" /></clipPath><clipPath
       clipPathUnits="userSpaceOnUse"
       id="clipPath1902"><path
         d="m 1109.71,1374.58 39.27,49.26 48.22,-435.324 -31.87,31.504 -55.62,354.56"
         id="path1900"
         inkscape:connector-curvature="0" /></clipPath><clipPath
       clipPathUnits="userSpaceOnUse"
       id="clipPath1912"><path
         d="m 1770.16,1395.1 -9.95,-87.68 h -59.26 l 8.97,90.46 60.24,-2.78"
         id="path1910"
         inkscape:connector-curvature="0" /></clipPath><clipPath
       clipPathUnits="userSpaceOnUse"
       id="clipPath1922"><path
         d="m 1774.68,1315.98 h -59.27 l 8.48,114.3 59.25,-21.17 -8.46,-93.13"
         id="path1920"
         inkscape:connector-curvature="0" /></clipPath><clipPath
       clipPathUnits="userSpaceOnUse"
       id="clipPath2228"><path
         d="m 2809.45,862.684 c 0,-13.536 -102.36,-24.512 -228.64,-24.512 -126.26,0 -228.63,10.976 -228.63,24.512 0,13.535 102.37,24.504 228.63,24.504 126.28,0 228.64,-10.969 228.64,-24.504"
         id="path2226"
         inkscape:connector-curvature="0" /></clipPath><clipPath
       clipPathUnits="userSpaceOnUse"
       id="clipPath2242"><path
         d="m 2761.73,1008.52 -231.34,-105.336 56.3,105.336 h 175.04"
         id="path2240"
         inkscape:connector-curvature="0" /></clipPath><clipPath
       clipPathUnits="userSpaceOnUse"
       id="clipPath2260"><path
         d="m 2132.82,1423.85 669.29,-30.98 -40.38,-384.35 -580.69,-20.004 -48.22,435.334"
         id="path2258"
         inkscape:connector-curvature="0" /></clipPath><clipPath
       clipPathUnits="userSpaceOnUse"
       id="clipPath2270"><path
         d="m 2093.55,1374.59 39.27,49.26 48.22,-435.334 -31.87,31.514 -55.62,354.56"
         id="path2268"
         inkscape:connector-curvature="0" /></clipPath><clipPath
       clipPathUnits="userSpaceOnUse"
       id="clipPath2280"><path
         d="m 2753.99,1395.11 -9.95,-87.69 h -59.25 l 8.97,90.47 60.23,-2.78"
         id="path2278"
         inkscape:connector-curvature="0" /></clipPath><clipPath
       clipPathUnits="userSpaceOnUse"
       id="clipPath2290"><path
         d="m 2758.52,1315.98 h -59.27 l 8.46,114.3 59.27,-21.16 -8.46,-93.14"
         id="path2288"
         inkscape:connector-curvature="0" /></clipPath><linearGradient
       inkscape:collect="always"
       xlink:href="#linearGradient4684"
       id="linearGradient4688"
       gradientUnits="userSpaceOnUse"
       x1="257.43399"
       y1="351.73599"
       x2="245.90941"
       y2="185.95053" /><linearGradient
       inkscape:collect="always"
       xlink:href="#linearGradient4694"
       id="linearGradient4696"
       x1="137.08211"
       y1="3557.5835"
       x2="2574.3401"
       y2="2847.8401"
       gradientUnits="userSpaceOnUse" /><linearGradient
       inkscape:collect="always"
       xlink:href="#linearGradient4694"
       id="linearGradient4712"
       x1="1587.12"
       y1="1950.085"
       x2="2427.6201"
       y2="1950.085"
       gradientUnits="userSpaceOnUse" /><linearGradient
       inkscape:collect="always"
       xlink:href="#linearGradient4694"
       id="linearGradient4714"
       gradientUnits="userSpaceOnUse"
       x1="1595.5692"
       y1="2000.781"
       x2="2421.9873"
       y2="2051.4768" /><linearGradient
       inkscape:collect="always"
       xlink:href="#linearGradient4694"
       id="linearGradient4716"
       gradientUnits="userSpaceOnUse"
       x1="2209.5537"
       y1="1964.1671"
       x2="1658.7313"
       y2="1930.3699" /><radialGradient
       inkscape:collect="always"
       xlink:href="#linearGradient5788"
       id="radialGradient5790"
       cx="181.66054"
       cy="-148.14485"
       fx="181.66054"
       fy="-148.14485"
       r="85.338203"
       gradientTransform="matrix(1,0,0,0.13861386,0,-127.60992)"
       gradientUnits="userSpaceOnUse" /></defs><sodipodi:namedview
     pagecolor="#ffffff"
     bordercolor="#666666"
     borderopacity="1"
     objecttolerance="10"
     gridtolerance="10"
     guidetolerance="10"
     inkscape:pageopacity="0"
     inkscape:pageshadow="2"
     inkscape:window-width="1920"
     inkscape:window-height="1146"
     id="namedview4"
     showgrid="false"
     inkscape:zoom="0.94148934"
     inkscape:cx="83.71331"
     inkscape:cy="306.4474"
     inkscape:window-x="0"
     inkscape:window-y="0"
     inkscape:window-maximized="1"
     inkscape:current-layer="layer1" /><g
     id="g10"
     inkscape:groupmode="layer"
     inkscape:label="ink_ext_XXXXXX"
     transform="matrix(1.3333333,0,0,-1.3333333,0,329.99997)"><g
       id="g5814"
       transform="translate(0,-133.49937)"><ellipse
         ry="11.829058"
         rx="85.338203"
         transform="scale(1,-1)"
         cy="-148.14485"
         cx="181.66054"
         id="path5774"
         style="opacity:0.63999999;fill:url(#radialGradient5790);fill-opacity:1;stroke-width:0.75" /><g
         transform="matrix(1.0547299,0,0,1.0547299,0,-20.578221)"
         id="g5772"><path
           inkscape:connector-curvature="0"
           id="path44"
           style="fill:url(#linearGradient4688);fill-opacity:1;fill-rule:nonzero;stroke:none;stroke-width:0.1"
           d="m 257.434,351.736 10.162,-15.483 -24.834,-122.357 -9.718,-0.523 24.39,138.363" /><path
           inkscape:connector-curvature="0"
           id="path26"
           style="fill:#398ffe;fill-opacity:1;fill-rule:nonzero;stroke:none;stroke-width:0.1"
           d="m 177.137,161.772 -18.425,14.349 15.093,10.46 z" /><g
           id="g28"
           transform="scale(0.1)"
           style="fill:url(#linearGradient4712);fill-opacity:1"><g
             clip-path="url(#clipPath34)"
             id="g30"
             style="fill:url(#linearGradient4714);fill-opacity:1"><path
               inkscape:connector-curvature="0"
               id="path36"
               d="m 2427.62,2138.96 -840.5,-377.75 204.51,377.75 h 635.99"
               style="fill:url(#linearGradient4716);fill-opacity:1" /></g></g><path
           inkscape:connector-curvature="0"
           id="path38"
           style="fill:#4aa238;fill-opacity:1;fill-rule:nonzero;stroke:none;stroke-width:0.1"
           d="m 229.928,354.995 -16.02,6.451 9.227,3.704 21.531,-7.589 -14.738,-2.566" /><path
           inkscape:connector-curvature="0"
           id="path40"
           style="fill:#27602c;fill-opacity:1;fill-rule:nonzero;stroke:none;stroke-width:0.1"
           d="m 229.928,354.995 -16.02,6.451 -8.588,-10.627 22.429,-0.38 2.179,4.556" /><path
           inkscape:connector-curvature="0"
           id="path42"
           style="fill:#167dfe;fill-opacity:1;fill-rule:nonzero;stroke:none;stroke-width:0.1"
           d="M 20.2102,218.025 53.3223,375.996 0,345.178 Z" /><g
           id="g46"
           transform="scale(0.1)"><g
             clip-path="url(#clipPath52)"
             id="g48"><path
               inkscape:connector-curvature="0"
               id="path54"
               d="M 142.715,3628.43 2574.34,3517.36 2427.62,2138.96 317.863,2067.25 142.715,3628.43"
               style="fill:url(#linearGradient4696);fill-opacity:1" /></g></g><g
           id="g56"
           transform="scale(0.1)"
           style="fill:#88b9fe;fill-opacity:1"><g
             clip-path="url(#clipPath62)"
             id="g58"
             style="fill:#88b9fe;fill-opacity:1"><path
               inkscape:connector-curvature="0"
               id="path64"
               d="m 0,3451.78 142.715,176.65 175.148,-1561.18 -115.761,113 L 0,3451.78"
               style="fill:#88b9fe;fill-opacity:1" /></g></g><g
           id="g66"
           transform="scale(0.1)"
           style="fill:#0e79fe;fill-opacity:1"><g
             clip-path="url(#clipPath72)"
             id="g68"
             style="fill:#0e79fe;fill-opacity:1"><path
               inkscape:connector-curvature="0"
               id="path74"
               d="m 2399.27,3523.31 -35.92,-312.4 h -215.3 l 32.59,324.43 218.63,-12.03"
               style="fill:#0e79fe;fill-opacity:1" /></g></g><g
           id="g76"
           transform="scale(0.1)"
           style="fill:#27602c;fill-opacity:1"><g
             clip-path="url(#clipPath82)"
             id="g78"
             style="fill:#27602c;fill-opacity:1"><path
               inkscape:connector-curvature="0"
               id="path84"
               d="m 2415.89,3241.65 h -215.3 l 30.76,409.85 215.31,-75.89 -30.77,-333.96"
               style="fill:#27602c;fill-opacity:1" /></g></g></g></g></g><g
     inkscape:groupmode="layer"
     id="layer1"
     inkscape:label="ink_ext_XXXXXX 1"
     style="display:inline"
     transform="translate(0,-171.33337)" /></svg>