<?xml version="1.0" encoding="UTF-8" standalone="no"?>
<!-- Created with Inkscape (http://www.inkscape.org/) -->

<svg
   xmlns:dc="http://purl.org/dc/elements/1.1/"
   xmlns:cc="http://creativecommons.org/ns#"
   xmlns:rdf="http://www.w3.org/1999/02/22-rdf-syntax-ns#"
   xmlns:svg="http://www.w3.org/2000/svg"
   xmlns="http://www.w3.org/2000/svg"
   xmlns:sodipodi="http://sodipodi.sourceforge.net/DTD/sodipodi-0.dtd"
   xmlns:inkscape="http://www.inkscape.org/namespaces/inkscape"
   width="818mm"
   height="203mm"
   viewBox="0 0 2898.4216 719.29126"
   id="svg2"
   version="1.1"
   inkscape:version="0.92.3 (2405546, 2018-03-11)"
   sodipodi:docname="Logo.svg">
  <defs
     id="defs4" />
  <sodipodi:namedview
     id="base"
     pagecolor="#ffffff"
     bordercolor="#666666"
     borderopacity="1.0"
     inkscape:pageopacity="0.0"
     inkscape:pageshadow="2"
     inkscape:zoom="0.25"
     inkscape:cx="1600.3596"
     inkscape:cy="439.65658"
     inkscape:document-units="px"
     inkscape:current-layer="layer2"
     showgrid="false"
     inkscape:window-width="1920"
     inkscape:window-height="1146"
     inkscape:window-x="0"
     inkscape:window-y="0"
     inkscape:window-maximized="1" />
  <metadata
     id="metadata7">
    <rdf:RDF>
      <cc:Work
         rdf:about="">
        <dc:format>image/svg+xml</dc:format>
        <dc:type
           rdf:resource="http://purl.org/dc/dcmitype/StillImage" />
        <dc:title />
      </cc:Work>
    </rdf:RDF>
  </metadata>
  <g
     inkscape:groupmode="layer"
     id="layer2"
     inkscape:label="Layer 2"
     transform="translate(0,-333.07101)">
    <path
       style="fill:#85b9f7;fill-opacity:1;stroke:none;stroke-width:1;stroke-miterlimit:4;stroke-dasharray:none;stroke-opacity:1"
       d="m 498.87185,338.41745 c -12.25687,0 -22.12409,9.86836 -22.12409,22.12519 l 0,64.37466 129.05815,87.11426 0,-151.48892 c 0,-12.25683 -9.86726,-22.12519 -22.12412,-22.12519 z m 189.33392,301.48236 c 24.15104,-0.2739 26.88675,-17.3188 8.36546,-29.75546 L 372.10664,392.27466 c -3.74191,-2.5126 -8.74577,-3.64649 -13.71763,-3.72529 -0.33874,-0.0106 -0.67855,-0.0177 -1.01778,-0.0177 l 0,-4e-5 c -5.14141,0 -10.28318,1.24509 -14.22283,3.73376 L 12.232907,610.13507 c -18.8613751,11.91458 -15.7881887,29.79578 8.364407,29.75644 l 30.891013,-0.05 c 8.976653,0 11.048701,3.88758 11.048701,10.58252 0,101.73408 -0.03813,217.19526 0.05428,339.48867 0.618839,18.5003 14.78497,35.4075 32.885203,39.2669 10.405269,2.1405 21.128279,0.6282 31.664859,1.0828 l 140.81179,0 c 0.0566,-65.65394 -0.11434,-131.31319 0.0855,-196.96397 0.78758,-18.27061 15.60465,-34.61779 33.69288,-37.26071 11.29784,-1.18974 22.72134,-0.22855 34.06792,-0.53876 21.73657,0.14138 43.49201,-0.28134 65.21699,0.20905 18.41113,1.53053 34.25587,17.19394 35.98887,35.58451 0.60856,18.55152 0.0868,37.14598 0.26043,55.71397 l 0,143.25591 c 57.35144,-0.06 112.55737,0.1205 169.90551,-0.089 18.67341,-0.8455 35.5236,-15.5176 38.95484,-33.8875 1.77342,-10.2795 0.44975,-20.79325 0.85914,-31.16699 l -0.86046,-314.69517 c 0,-6.69494 2.07199,-10.58248 11.04864,-10.58248 z m -415.03865,-87.3905 65.31155,0 0,60.31747 -65.31155,0 z m 96.02483,0 65.31151,0 0,60.31747 -65.31151,0 z m -96.02483,95.64144 65.31155,0 0,60.3175 -65.31155,0 z m 96.02483,0 65.31151,0 0,60.3175 -65.31151,0 z"
       id="rect4220"
       inkscape:connector-curvature="0"
       sodipodi:nodetypes="ssccssscsscccccsccccccccccccccccccccccccccccccccccccccc" />
    <g
       style="font-style:normal;font-variant:normal;font-weight:normal;font-stretch:normal;font-size:366.64666748px;line-height:125%;font-family:Broadway;-inkscape-font-specification:'Broadway, Normal';text-align:start;letter-spacing:0px;word-spacing:0px;writing-mode:lr-tb;text-anchor:start;fill:#85b9f7;fill-opacity:1;stroke:none;stroke-width:1px;stroke-linecap:butt;stroke-linejoin:miter;stroke-opacity:1"
       id="text4142"
       transform="translate(0,-21.999999)">
      <path
         d="m 1087.6212,496.15439 q -1.0741,53.17093 -34.0151,88.79724 -18.4397,19.87197 -43.8615,30.97162 -25.24276,10.92063 -52.45481,10.92063 -23.63153,0 -46.54694,-8.95134 -22.91542,-8.95133 -40.63906,-25.06373 -22.73639,-20.7671 -33.65702,-49.94845 -8.59328,-23.27347 -8.59328,-46.18889 0,-42.60835 26.31692,-77.33953 18.0817,-24.1686 45.47278,-37.77463 27.39109,-13.78506 57.46757,-13.78506 52.81284,0 90.94554,36.34242 17.0076,16.29143 17.0076,23.09445 0,2.32734 -1.9693,3.93858 -1.7903,1.61124 -4.4757,1.61124 -4.1176,0 -8.7723,-6.26593 -35.9844,-47.80013 -92.37779,-47.80013 -6.80301,0 -13.78505,0.89514 l -0.89514,127.10895 0.89514,107.95309 q 6.62399,1.25319 13.427,1.25319 20.23002,0 39.20685,-6.80301 47.97919,-17.00754 68.92529,-62.48032 8.9513,-19.15586 10.5626,-39.02782 l -93.45198,0 q -12.35284,-0.35805 -14.85921,-1.25319 -2.50638,-0.89513 -2.50638,-4.65469 0,-5.72885 8.59329,-5.72885 l 10.7416,0.17902 103.29838,0 z"
         id="path4245"
         inkscape:connector-curvature="0"
         style="fill:#85b9f7;fill-opacity:1" />
      <path
         d="m 1226.725,375.13235 -0.7161,37.41658 -0.7162,59.61589 0.1791,43.50348 0.7161,92.19875 12.8899,0.17903 76.6234,-1.07416 13.9641,-0.17903 q 10.5626,0 10.5626,6.26593 0,5.54983 -5.7289,6.08691 -1.2532,0.17903 -8.2352,0.35805 l -209.6403,0 0.5371,-68.03014 0.3581,-41.71322 0.358,-47.26305 -0.7161,-71.96873 0.179,-15.39629 109.3854,0 z"
         id="path4247"
         inkscape:connector-curvature="0"
         style="fill:#85b9f7;fill-opacity:1" />
      <path
         d="m 1471.0964,453.54604 q -0.358,8.23523 -0.358,20.05099 l 0,10.7416 1.2531,123.52842 60.6901,-0.71611 42.9664,-0.53708 q 10.5626,0 10.5626,6.44496 0,5.3708 -5.3708,6.08691 -1.2532,0.17903 -14.8592,0.35805 l -203.3744,0 0.1791,-9.30938 0.179,-59.79492 0.7161,-64.09156 -1.4322,-111.17557 189.7683,0 q 12.7109,0 14.5011,0.53708 4.1176,1.07416 4.1176,6.08691 0,6.26593 -7.8771,6.26593 l -1.2532,0 -89.6924,-1.25319 -0.7161,55.49828 19.5139,0.17902 62.6594,-1.07416 13.785,-0.17902 q 7.5191,0 9.8465,1.25318 2.5064,1.25319 2.5064,5.01275 0,6.98204 -11.8158,6.98204 l -14.1431,-0.35805 -82.3523,-0.53708 z"
         id="path4249"
         inkscape:connector-curvature="0"
         style="fill:#85b9f7;fill-opacity:1" />
      <path
         d="m 1827.3595,494.00607 0,-29.89746 -0.3581,-47.44207 -0.179,-21.66223 -0.179,-13.60603 q 0,-9.66744 6.624,-9.66744 3.9385,0 5.3708,2.32735 1.6112,2.14832 1.6112,8.41425 l 0,2.50638 q -0.179,3.75956 -0.179,12.35284 l -0.7161,60.33199 -0.5371,55.31925 0.5371,58.18368 0.7161,58.3627 q -36.8795,-23.09444 -107.9531,-63.7335 -71.0736,-40.81809 -115.1142,-64.09156 l 0.179,8.77231 1.7903,92.37777 0.179,12.35284 q 0,7.69815 -7.161,7.69815 -7.3401,0 -7.3401,-9.48841 l 0.179,-12.53187 0.179,-20.23002 0.7161,-91.84069 -1.4322,-123.70745 q 72.5058,44.9357 223.0673,128.89922 z"
         id="path4251"
         inkscape:connector-curvature="0"
         style="fill:#85b9f7;fill-opacity:1" />
      <path
         d="m 1877.845,375.13235 94.1681,0 q 36.8795,0 55.4983,3.58053 46.0098,8.77231 74.296,49.05332 22.1993,31.68772 22.1993,69.82041 0,38.84879 -22.9154,70.71554 -27.5701,38.49074 -71.9687,47.80013 -11.4577,2.32734 -20.409,2.86442 -8.9514,0.53708 -39.3859,0.53708 l -90.9456,0 0.5371,-118.15761 -1.0742,-126.21382 z m 109.3853,11.45771 -0.8951,143.93746 1.0742,77.51856 q 23.9896,-0.17903 34.3731,-1.79027 10.5626,-1.79027 24.1686,-7.69815 32.0458,-13.78505 50.3065,-44.39862 15.9334,-26.31692 15.9334,-56.93049 0,-33.29896 -18.7978,-61.22713 -33.478,-49.59039 -99.1808,-49.59039 l -6.9821,0.17903 z"
         id="path4253"
         inkscape:connector-curvature="0"
         style="fill:#85b9f7;fill-opacity:1" />
      <path
         d="m 2262.9315,360.45216 143.2213,259.05162 -124.0655,0 -17.0075,-32.76188 -60.153,0 -52.9919,-0.17903 -8.9513,-0.17902 -11.8158,21.84125 q -5.1918,9.84647 -7.3401,12.17382 -1.9693,2.50637 -5.0127,2.50637 -6.0869,0 -6.0869,-5.3708 0,-2.32735 3.4015,-8.59328 3.5805,-6.44496 24.5266,-41.89225 l 108.3112,-182.4282 13.9641,-24.1686 z m -55.6773,117.26248 -31.3297,52.81288 -25.0638,43.50348 53.7081,0.71611 53.887,-0.53708 -51.2016,-96.49539 z"
         id="path4255"
         inkscape:connector-curvature="0"
         style="fill:#85b9f7;fill-opacity:1" />
      <path
         d="m 2532.9037,375.13235 -0.7161,37.41658 -0.7161,59.61589 0.179,43.50348 0.7161,92.19875 12.89,0.17903 76.6234,-1.07416 13.9641,-0.17903 q 10.5626,0 10.5626,6.26593 0,5.54983 -5.7289,6.08691 -1.2532,0.17903 -8.2352,0.35805 l -209.6403,0 0.5371,-68.03014 0.358,-41.71322 0.3581,-47.26305 -0.7161,-71.96873 0.179,-15.39629 109.3853,0 z"
         id="path4257"
         inkscape:connector-curvature="0"
         style="fill:#85b9f7;fill-opacity:1" />
      <path
         d="m 2777.2752,453.54604 q -0.3581,8.23523 -0.3581,20.05099 l 0,10.7416 1.2532,123.52842 60.6901,-0.71611 42.9664,-0.53708 q 10.5625,0 10.5625,6.44496 0,5.3708 -5.3708,6.08691 -1.2531,0.17903 -14.8592,0.35805 l -203.3743,0 0.179,-9.30938 0.1791,-59.79492 0.7161,-64.09156 -1.4323,-111.17557 189.7683,0 q 12.7109,0 14.5012,0.53708 4.1176,1.07416 4.1176,6.08691 0,6.26593 -7.8772,6.26593 l -1.2531,0 -89.6924,-1.25319 -0.7161,55.49828 19.5139,0.17902 62.6593,-1.07416 13.7851,-0.17902 q 7.5191,0 9.8465,1.25318 2.5063,1.25319 2.5063,5.01275 0,6.98204 -11.8157,6.98204 l -14.1431,-0.35805 -82.3523,-0.53708 z"
         id="path4259"
         inkscape:connector-curvature="0"
         style="fill:#85b9f7;fill-opacity:1" />
    </g>
    <g
       style="font-style:normal;font-weight:normal;font-size:167.51109314px;line-height:125%;font-family:sans-serif;letter-spacing:0px;word-spacing:0px;fill:#000000;fill-opacity:1;stroke:none;stroke-width:1px;stroke-linecap:butt;stroke-linejoin:miter;stroke-opacity:1"
       id="text4144"
       transform="translate(0,-21.999999)">
      <path
         d="m 844.37553,749.92024 0,45.88561 20.77531,0 q 11.53274,0 17.83077,-5.97086 6.29802,-5.97085 6.29802,-17.01284 0,-10.9602 -6.29802,-16.93105 -6.29803,-5.97086 -17.83077,-5.97086 l -20.77531,0 z m -16.52209,-13.57756 37.2974,0 q 20.52992,0 30.99936,9.32435 10.55124,9.24256 10.55124,27.15512 0,18.07615 -10.55124,27.3187 -10.46944,9.24256 -30.99936,9.24256 l -20.77531,0 0,49.07551 -16.52209,0 0,-122.11624 z"
         id="path4206"
         inkscape:connector-curvature="0" />
      <path
         d="m 986.85812,801.20416 q 5.31651,1.79943 10.30586,7.68849 5.07112,5.88906 10.14232,16.19492 l 16.7674,33.37135 -17.749,0 -15.62233,-31.32653 q -6.05265,-12.26888 -11.77813,-16.27672 -5.64368,-4.00783 -15.45878,-4.00783 l -17.99436,0 0,51.61108 -16.52209,0 0,-122.11624 37.29739,0 q 20.93889,0 31.24475,8.7518 10.30585,8.7518 10.30585,26.41899 0,11.53274 -5.3983,19.13945 -5.31652,7.6067 -15.54058,10.55124 z m -41.38702,-51.28392 0,43.35004 20.7753,0 q 11.94171,0 17.99436,-5.4801 6.13444,-5.56189 6.13444,-16.27671 0,-10.71482 -6.13444,-16.11313 -6.05265,-5.4801 -17.99436,-5.4801 l -20.7753,0 z"
         id="path4208"
         inkscape:connector-curvature="0" />
      <path
         d="m 1094.9878,747.54826 q -17.9943,0 -28.6274,13.41397 -10.5512,13.41398 -10.5512,36.56126 0,23.06549 10.5512,36.47947 10.6331,13.41397 28.6274,13.41397 17.9944,0 28.4638,-13.41397 10.5513,-13.41398 10.5513,-36.47947 0,-23.14728 -10.5513,-36.56126 -10.4694,-13.41397 -28.4638,-13.41397 z m 0,-13.41398 q 25.6829,0 41.0599,17.25823 15.377,17.17643 15.377,46.13098 0,28.87276 -15.377,46.13099 -15.377,17.17643 -41.0599,17.17643 -25.7646,0 -41.2234,-17.17643 -15.377,-17.17643 -15.377,-46.13099 0,-28.95455 15.377,-46.13098 15.4588,-17.25823 41.2234,-17.25823 z"
         id="path4210"
         inkscape:connector-curvature="0" />
      <path
         d="m 1193.7932,749.92024 0,45.88561 20.7753,0 q 11.5327,0 17.8308,-5.97086 6.298,-5.97085 6.298,-17.01284 0,-10.9602 -6.298,-16.93105 -6.2981,-5.97086 -17.8308,-5.97086 l -20.7753,0 z m -16.5221,-13.57756 37.2974,0 q 20.5299,0 30.9994,9.32435 10.5512,9.24256 10.5512,27.15512 0,18.07615 -10.5512,27.3187 -10.4695,9.24256 -30.9994,9.24256 l -20.7753,0 0,49.07551 -16.5221,0 0,-122.11624 z"
         id="path4212"
         inkscape:connector-curvature="0" />
      <path
         d="m 1278.3667,736.34268 77.2121,0 0,13.90473 -60.69,0 0,36.1523 58.1545,0 0,13.90473 -58.1545,0 0,44.24975 62.1623,0 0,13.90473 -78.6844,0 0,-122.11624 z"
         id="path4214"
         inkscape:connector-curvature="0" />
      <path
         d="m 1442.2789,801.20416 q 5.3165,1.79943 10.3059,7.68849 5.0711,5.88906 10.1422,16.19492 l 16.7675,33.37135 -17.749,0 -15.6223,-31.32653 q -6.0527,-12.26888 -11.7782,-16.27672 -5.6436,-4.00783 -15.4588,-4.00783 l -17.9943,0 0,51.61108 -16.5221,0 0,-122.11624 37.2974,0 q 20.9389,0 31.2447,8.7518 10.3059,8.7518 10.3059,26.41899 0,11.53274 -5.3983,19.13945 -5.3165,7.6067 -15.5406,10.55124 z m -41.387,-51.28392 0,43.35004 20.7753,0 q 11.9417,0 17.9943,-5.4801 6.1345,-5.56189 6.1345,-16.27671 0,-10.71482 -6.1345,-16.11313 -6.0526,-5.4801 -17.9943,-5.4801 l -20.7753,0 z"
         id="path4216"
         inkscape:connector-curvature="0" />
      <path
         d="m 1471.806,736.34268 103.304,0 0,13.90473 -43.3501,0 0,108.21151 -16.6039,0 0,-108.21151 -43.35,0 0,-13.90473 z"
         id="path4218"
         inkscape:connector-curvature="0" />
      <path
         d="m 1574.3738,736.34268 17.749,0 33.8621,50.22061 33.6167,-50.22061 17.749,0 -43.1864,63.96176 0,58.15448 -16.6039,0 0,-58.15448 -43.1865,-63.96176 z"
         id="path4220"
         inkscape:connector-curvature="0" />
      <path
         d="m 1820.0786,740.35052 0,16.11312 q -9.4062,-4.49859 -17.749,-6.70698 -8.3428,-2.2084 -16.1131,-2.2084 -13.4958,0 -20.8571,5.23472 -7.2796,5.23472 -7.2796,14.88624 0,8.09746 4.8258,12.26888 4.9075,4.08962 18.4851,6.62519 l 9.9787,2.04482 q 18.4851,3.51707 27.2369,12.43246 8.8336,8.83359 8.8336,23.71983 0,17.74898 -11.9417,26.90974 -11.8599,9.16077 -34.8436,9.16077 -8.67,0 -18.4851,-1.96302 -9.7334,-1.96302 -20.2028,-5.80727 l 0,-17.01285 q 10.0605,5.64369 19.712,8.50642 9.6515,2.86274 18.9759,2.86274 14.1501,0 21.8386,-5.56189 7.6885,-5.56189 7.6885,-15.86775 0,-8.99718 -5.5619,-14.06831 -5.4801,-5.07114 -18.0762,-7.60671 l -10.0604,-1.96302 q -18.4852,-3.68066 -26.7462,-11.53275 -8.261,-7.85208 -8.261,-21.8386 0,-16.19492 11.3691,-25.51927 11.451,-9.32435 31.4901,-9.32435 8.5882,0 17.5036,1.55406 8.9154,1.55406 18.2398,4.66218 z"
         id="path4222"
         inkscape:connector-curvature="0" />
      <path
         d="m 1853.2045,736.34268 77.2122,0 0,13.90473 -60.6901,0 0,36.1523 58.1545,0 0,13.90473 -58.1545,0 0,44.24975 62.1623,0 0,13.90473 -78.6844,0 0,-122.11624 z"
         id="path4224"
         inkscape:connector-curvature="0" />
      <path
         d="m 2017.1168,801.20416 q 5.3165,1.79943 10.3059,7.68849 5.0711,5.88906 10.1422,16.19492 l 16.7675,33.37135 -17.749,0 -15.6224,-31.32653 q -6.0526,-12.26888 -11.7781,-16.27672 -5.6437,-4.00783 -15.4588,-4.00783 l -17.9943,0 0,51.61108 -16.5221,0 0,-122.11624 37.2974,0 q 20.9389,0 31.2447,8.7518 10.3059,8.7518 10.3059,26.41899 0,11.53274 -5.3983,19.13945 -5.3165,7.6067 -15.5406,10.55124 z m -41.387,-51.28392 0,43.35004 20.7753,0 q 11.9417,0 17.9943,-5.4801 6.1345,-5.56189 6.1345,-16.27671 0,-10.71482 -6.1345,-16.11313 -6.0526,-5.4801 -17.9943,-5.4801 l -20.7753,0 z"
         id="path4226"
         inkscape:connector-curvature="0" />
      <path
         d="m 2098.0096,858.45892 -46.6218,-122.11624 17.2583,0 38.6878,102.81321 38.7697,-102.81321 17.1764,0 -46.5399,122.11624 -18.7305,0 z"
         id="path4228"
         inkscape:connector-curvature="0" />
      <path
         d="m 2181.029,736.34268 16.5221,0 0,122.11624 -16.5221,0 0,-122.11624 z"
         id="path4230"
         inkscape:connector-curvature="0" />
      <path
         d="m 2321.8757,745.74882 0,17.42181 q -8.3428,-7.77029 -17.8307,-11.61454 -9.4062,-3.84425 -20.0392,-3.84425 -20.9389,0 -32.0627,12.84143 -11.1238,12.75963 -11.1238,36.97022 0,24.1288 11.1238,36.97022 11.1238,12.75964 32.0627,12.75964 10.633,0 20.0392,-3.84425 9.4879,-3.84425 17.8307,-11.61454 l 0,17.25822 q -8.67,5.88906 -18.4033,8.8336 -9.6515,2.94453 -20.4481,2.94453 -27.7277,0 -43.6772,-16.93106 -15.9496,-17.01284 -15.9496,-46.37636 0,-29.44531 15.9496,-46.37636 15.9495,-17.01285 43.6772,-17.01285 10.9602,0 20.6117,2.94453 9.7333,2.86274 18.2397,8.67001 z"
         id="path4232"
         inkscape:connector-curvature="0" />
      <path
         d="m 2347.5585,736.34268 77.2122,0 0,13.90473 -60.6901,0 0,36.1523 58.1545,0 0,13.90473 -58.1545,0 0,44.24975 62.1623,0 0,13.90473 -78.6844,0 0,-122.11624 z"
         id="path4234"
         inkscape:connector-curvature="0" />
      <path
         d="m 2526.766,740.35052 0,16.11312 q -9.4061,-4.49859 -17.749,-6.70698 -8.3428,-2.2084 -16.1131,-2.2084 -13.4958,0 -20.8571,5.23472 -7.2795,5.23472 -7.2795,14.88624 0,8.09746 4.8257,12.26888 4.9076,4.08962 18.4851,6.62519 l 9.9787,2.04482 q 18.4851,3.51707 27.2369,12.43246 8.8336,8.83359 8.8336,23.71983 0,17.74898 -11.9417,26.90974 -11.8599,9.16077 -34.8436,9.16077 -8.67,0 -18.4851,-1.96302 -9.7333,-1.96302 -20.2028,-5.80727 l 0,-17.01285 q 10.0605,5.64369 19.712,8.50642 9.6516,2.86274 18.9759,2.86274 14.1501,0 21.8386,-5.56189 7.6885,-5.56189 7.6885,-15.86775 0,-8.99718 -5.5619,-14.06831 -5.4801,-5.07114 -18.0761,-7.60671 l -10.0605,-1.96302 q -18.4851,-3.68066 -26.7462,-11.53275 -8.261,-7.85208 -8.261,-21.8386 0,-16.19492 11.3692,-25.51927 11.4509,-9.32435 31.4901,-9.32435 8.5882,0 17.5036,1.55406 8.9154,1.55406 18.2397,4.66218 z"
         id="path4236"
         inkscape:connector-curvature="0" />
      <path
         d="m 2613.2208,736.34268 16.522,0 0,108.21151 59.4632,0 0,13.90473 -75.9852,0 0,-122.11624 z"
         id="path4238"
         inkscape:connector-curvature="0" />
      <path
         d="m 2666.6313,736.34268 103.3039,0 0,13.90473 -43.35,0 0,108.21151 -16.6039,0 0,-108.21151 -43.35,0 0,-13.90473 z"
         id="path4240"
         inkscape:connector-curvature="0" />
      <path
         d="m 2802.4886,749.92024 0,94.96112 19.9573,0 q 25.2739,0 36.9703,-11.45095 11.7781,-11.45095 11.7781,-36.1523 0,-24.53775 -11.7781,-35.90691 -11.6964,-11.45096 -36.9703,-11.45096 l -19.9573,0 z m -16.5221,-13.57756 33.9439,0 q 35.4979,0 52.1018,14.80445 16.6039,14.72265 16.6039,46.13098 0,31.57192 -16.6857,46.37637 -16.6856,14.80444 -52.02,14.80444 l -33.9439,0 0,-122.11624 z"
         id="path4242"
         inkscape:connector-curvature="0" />
    </g>
    <g
       style="font-style:oblique;font-variant:normal;font-weight:normal;font-stretch:normal;font-size:150.24996948px;line-height:125%;font-family:'Bitstream Vera Sans';-inkscape-font-specification:'Bitstream Vera Sans, Oblique';text-align:start;letter-spacing:0px;word-spacing:0px;writing-mode:lr-tb;text-anchor:start;fill:#000000;fill-opacity:1;stroke:none;stroke-width:1px;stroke-linecap:butt;stroke-linejoin:miter;stroke-opacity:1"
       id="text4152"
       transform="translate(0,-21.999999)">
      <path
         d="m 827.85351,933.58926 15.92004,0 20.46863,45.04564 39.02978,-45.04564 16.65368,0 -49.66759,57.37083 -10.12427,52.16201 -14.81958,0 10.0509,-52.16201 -27.51159,-57.37083 z"
         id="path4157"
         inkscape:connector-curvature="0" />
      <path
         d="m 931.95737,1045.2496 q -14.45275,0 -22.88964,-8.877 -8.36352,-8.9505 -8.36352,-24.357 0,-8.9504 2.8612,-18.1943 2.93457,-9.31726 7.55652,-15.62658 7.26306,-9.83081 16.2135,-14.52612 8.95043,-4.69532 20.24853,-4.69532 14.01257,0 22.59619,8.73035 8.65698,8.73034 8.65698,22.81628 0,9.75749 -2.86121,19.44149 -2.86121,9.6841 -7.48315,16.0668 -7.1897,9.8308 -16.14014,14.5261 -8.95043,4.6953 -20.39526,4.6953 z m -17.24059,-33.6742 q 0,11.1514 4.62194,16.7271 4.69532,5.5023 14.1593,5.5023 13.57239,0 22.44946,-11.8116 8.95044,-11.885 8.95044,-30.07937 0,-10.63782 -4.76868,-16.06677 -4.76867,-5.42895 -14.01257,-5.42895 -7.62988,0 -13.57238,3.59484 -5.94251,3.52149 -10.63782,10.78455 -3.44812,5.42895 -5.35559,12.39855 -1.8341,6.96965 -1.8341,14.37935 z"
         id="path4159"
         inkscape:connector-curvature="0" />
      <path
         d="m 995.7109,1010.5483 9.6107,-49.59418 13.5724,0 -9.6107,49.08068 q -0.7337,3.5948 -1.1005,6.1626 -0.2934,2.5677 -0.2934,4.2551 0,6.236 3.8149,9.6841 3.815,3.3748 10.7846,3.3748 10.8579,0 18.7812,-7.3365 7.9233,-7.3364 10.3444,-19.735 l 9.0238,-45.48578 13.499,0 -15.9201,82.16798 -13.499,0 2.7145,-12.9121 q -5.7224,7.1897 -13.6458,11.1513 -7.8499,3.8883 -16.727,3.8883 -10.7845,0 -16.8004,-5.8691 -6.01588,-5.9425 -6.01588,-16.507 0,-2.2009 0.36682,-5.5023 0.36682,-3.3014 1.10046,-6.8229 z"
         id="path4161"
         inkscape:connector-curvature="0" />
      <path
         d="m 1148.0151,973.42604 q -2.0542,-1.10046 -4.6953,-1.68738 -2.6412,-0.58691 -5.6491,-0.58691 -10.7845,0 -18.8546,8.21679 -8.0701,8.14343 -10.7112,21.86256 l -8.2901,41.891 -13.4991,0 16.0668,-82.16798 13.499,0 -2.5677,12.76538 q 5.3556,-7.11634 12.7654,-10.93128 7.4831,-3.81494 15.92,-3.81494 2.2009,0 4.3285,0.29346 2.1275,0.22009 4.2551,0.80701 l -2.5677,13.35229 z"
         id="path4163"
         inkscape:connector-curvature="0" />
      <path
         d="m 1216.0237,933.58926 14.893,0 -18.7813,97.20764 53.3358,0 -2.421,12.3252 -68.2287,0 21.2022,-109.53284 z"
         id="path4165"
         inkscape:connector-curvature="0" />
      <path
         d="m 1312.5711,1045.2496 q -14.4528,0 -22.8897,-8.877 -8.3635,-8.9505 -8.3635,-24.357 0,-8.9504 2.8612,-18.1943 2.9346,-9.31726 7.5565,-15.62658 7.2631,-9.83081 16.2135,-14.52612 8.9505,-4.69532 20.2486,-4.69532 14.0125,0 22.5961,8.73035 8.657,8.73034 8.657,22.81628 0,9.75749 -2.8612,19.44149 -2.8612,9.6841 -7.4831,16.0668 -7.1897,9.8308 -16.1402,14.5261 -8.9504,4.6953 -20.3952,4.6953 z m -17.2406,-33.6742 q 0,11.1514 4.6219,16.7271 4.6953,5.5023 14.1593,5.5023 13.5724,0 22.4495,-11.8116 8.9504,-11.885 8.9504,-30.07937 0,-10.63782 -4.7687,-16.06677 -4.7686,-5.42895 -14.0125,-5.42895 -7.6299,0 -13.5724,3.59484 -5.9425,3.52149 -10.6378,10.78455 -3.4482,5.42895 -5.3556,12.39855 -1.8341,6.96965 -1.8341,14.37935 z"
         id="path4167"
         inkscape:connector-curvature="0" />
      <path
         d="m 1446.8276,964.10878 -2.7145,13.35229 q -4.842,-3.52148 -10.3443,-5.28222 -5.429,-1.76074 -11.2981,-1.76074 -6.4561,0 -12.3252,2.27429 -5.7958,2.27429 -9.7574,6.45605 -6.3094,6.38269 -9.7575,14.96631 -3.4481,8.58364 -3.4481,17.75414 0,11.078 5.5023,16.507 5.5757,5.4289 16.8738,5.4289 5.5757,0 11.8116,-1.6874 6.3094,-1.6873 13.1322,-5.0621 l -2.5677,13.3523 q -5.8692,2.421 -12.1051,3.5948 -6.1626,1.2472 -12.692,1.2472 -16.3603,0 -25.164,-8.1434 -8.8037,-8.2168 -8.8037,-23.4032 0,-12.7654 4.5486,-23.47655 4.622,-10.78454 13.6458,-19.36816 6.1625,-5.86914 14.4527,-8.87707 8.2902,-3.00794 18.121,-3.00794 5.7224,0 11.3714,1.32056 5.6491,1.24719 11.5182,3.81494 z"
         id="path4169"
         inkscape:connector-curvature="0" />
      <path
         d="m 1529.7292,996.24232 -9.1705,46.87978 -13.499,0 2.4944,-12.472 q -5.9425,7.3365 -13.5724,11.0047 -7.5565,3.5948 -16.8738,3.5948 -10.4911,0 -17.2406,-6.3827 -6.6761,-6.456 -6.6761,-16.5069 0,-14.3794 11.4448,-22.74293 11.5182,-8.36352 31.6933,-8.36352 l 18.7813,0 0.7336,-3.59485 q 0.1468,-0.58691 0.2201,-1.24719 0.073,-0.73364 0.073,-2.20093 0,-6.52941 -5.3556,-10.12426 -5.2822,-3.66821 -14.8929,-3.66821 -6.6028,0 -13.5724,1.68737 -6.8963,1.68738 -14.2327,5.06214 l 2.3477,-12.47193 q 7.6298,-2.8612 14.8929,-4.25512 7.3364,-1.46729 14.1593,-1.46729 14.5261,0 22.0826,6.30933 7.6299,6.30932 7.6299,18.34106 0,2.42102 -0.3668,5.72241 -0.3668,3.22803 -1.1005,6.89624 z m -14.5995,5.57568 -13.499,0 q -16.5803,0 -24.577,4.4752 -7.9233,4.4019 -7.9233,13.7191 0,6.4561 4.035,10.1243 4.1084,3.6682 11.2981,3.6682 11.0046,0 19.2214,-7.85 8.2168,-7.9233 10.8579,-21.1289 l 0.5869,-3.0079 z"
         id="path4171"
         inkscape:connector-curvature="0" />
      <path
         d="m 1568.6857,928.96731 13.499,0 -22.2294,114.15479 -13.499,0 22.2294,-114.15479 z"
         id="path4173"
         inkscape:connector-curvature="0" />
      <path
         d="m 1656.0624,933.58926 34.2611,0 q 14.9663,0 22.8163,6.9696 7.85,6.9696 7.85,20.39526 0,18.0476 -11.5916,28.0985 -11.5915,10.0509 -32.5737,10.0509 l -18.6345,0 -8.5836,44.01858 -14.893,0 21.349,-109.53284 z m 12.472,12.17846 -7.9234,41.15734 18.6345,0 q 12.6187,0 19.3682,-6.45605 6.7495,-6.45606 6.7495,-18.48779 0,-7.70325 -4.6219,-11.95837 -4.5486,-4.25513 -12.8388,-4.25513 l -19.3681,0 z"
         id="path4175"
         inkscape:connector-curvature="0" />
      <path
         d="m 1788.3382,973.42604 q -2.0542,-1.10046 -4.6953,-1.68738 -2.6411,-0.58691 -5.6491,-0.58691 -10.7845,0 -18.8546,8.21679 -8.0701,8.14343 -10.7112,21.86256 l -8.2901,41.891 -13.499,0 16.0667,-82.16798 13.499,0 -2.5677,12.76538 q 5.3556,-7.11634 12.7654,-10.93128 7.4831,-3.81494 15.92,-3.81494 2.2009,0 4.3285,0.29346 2.1276,0.22009 4.2551,0.80701 l -2.5677,13.35229 z"
         id="path4177"
         inkscape:connector-curvature="0" />
      <path
         d="m 1821.4255,1045.2496 q -14.4528,0 -22.8897,-8.877 -8.3635,-8.9505 -8.3635,-24.357 0,-8.9504 2.8612,-18.1943 2.9346,-9.31726 7.5565,-15.62658 7.2631,-9.83081 16.2135,-14.52612 8.9505,-4.69532 20.2486,-4.69532 14.0125,0 22.5961,8.73035 8.657,8.73034 8.657,22.81628 0,9.75749 -2.8612,19.44149 -2.8612,9.6841 -7.4831,16.0668 -7.1897,9.8308 -16.1402,14.5261 -8.9504,4.6953 -20.3952,4.6953 z m -17.2406,-33.6742 q 0,11.1514 4.6219,16.7271 4.6953,5.5023 14.1593,5.5023 13.5724,0 22.4495,-11.8116 8.9504,-11.885 8.9504,-30.07937 0,-10.63782 -4.7687,-16.06677 -4.7686,-5.42895 -14.0125,-5.42895 -7.6299,0 -13.5724,3.59484 -5.9425,3.52149 -10.6378,10.78455 -3.4482,5.42895 -5.3556,12.39855 -1.8341,6.96965 -1.8341,14.37935 z"
         id="path4179"
         inkscape:connector-curvature="0" />
      <path
         d="m 1949.6661,992.50074 q 0,-10.78454 -4.6953,-16.50695 -4.6953,-5.72241 -13.499,-5.72241 -6.0159,0 -11.5182,3.0813 -5.4289,3.08129 -9.6841,8.95043 -4.1817,5.79578 -6.6761,14.01257 -2.4944,8.21682 -2.4944,16.28682 0,10.271 4.6953,15.8467 4.6953,5.5023 13.3523,5.5023 6.3827,0 11.8116,-3.0079 5.5024,-3.0079 9.3907,-8.7303 4.1817,-6.0159 6.7495,-14.1593 2.5677,-8.14347 2.5677,-15.55326 z m -41.8176,-19.0747 q 5.429,-7.11633 12.7654,-10.78454 7.4098,-3.66822 16.4336,-3.66822 12.6186,0 19.5882,8.29016 6.9696,8.2168 6.9696,23.10974 0,12.17842 -4.3285,23.25642 -4.3285,11.0047 -12.4719,19.735 -5.4289,5.7958 -12.2518,8.8771 -6.8229,3.0079 -14.3794,3.0079 -8.7303,0 -14.6729,-3.5948 -5.9425,-3.6682 -8.877,-10.8579 l -8.4369,43.5783 -13.499,0 22.0826,-113.42108 13.499,0 -2.421,12.47192 z"
         id="path4181"
         inkscape:connector-curvature="0" />
      <path
         d="m 2042.7654,994.70167 q 0.2201,-1.17383 0.2934,-2.42102 0.1468,-1.24719 0.1468,-2.49438 0,-8.95044 -5.2823,-14.1593 -5.2088,-5.20886 -14.2326,-5.20886 -10.0509,0 -17.7542,6.38268 -7.7032,6.30933 -11.6649,17.97424 l 48.4938,-0.0734 z m 11.7382,10.56443 -62.7997,0 q -0.4402,2.7879 -0.587,4.4019 -0.1467,1.614 -0.1467,2.7878 0,10.1976 6.236,15.7733 6.3093,5.5757 17.7541,5.5757 8.8037,0 16.6537,-1.9808 7.85,-1.9809 14.5995,-5.7958 l -2.5678,13.3523 q -7.263,2.9346 -15.0396,4.4018 -7.7033,1.4673 -15.7,1.4673 -17.0938,0 -26.3377,-8.1434 -9.1706,-8.2168 -9.1706,-23.2565 0,-12.8387 4.5486,-23.84334 4.622,-11.078 13.499,-19.73498 5.7224,-5.42896 13.5724,-8.36353 7.9234,-2.93457 16.8004,-2.93457 13.9392,0 22.156,8.36353 8.2902,8.36352 8.2902,22.44946 0,3.37475 -0.4402,7.26306 -0.4402,3.81497 -1.3206,8.21677 z"
         id="path4183"
         inkscape:connector-curvature="0" />
      <path
         d="m 2129.9221,973.42604 q -2.0542,-1.10046 -4.6953,-1.68738 -2.6411,-0.58691 -5.6491,-0.58691 -10.7845,0 -18.8546,8.21679 -8.07,8.14343 -10.7111,21.86256 l -8.2902,41.891 -13.499,0 16.0667,-82.16798 13.4991,0 -2.5678,12.76538 q 5.3556,-7.11634 12.7654,-10.93128 7.4831,-3.81494 15.92,-3.81494 2.201,0 4.3285,0.29346 2.1276,0.22009 4.2552,0.80701 l -2.5678,13.35229 z"
         id="path4185"
         inkscape:connector-curvature="0" />
      <path
         d="m 2188.3934,960.95412 -2.0542,10.49108 -26.9247,0 -8.7303,44.6055 q -0.4402,2.4943 -0.6603,4.1817 -0.2201,1.6874 -0.2201,2.6411 0,4.6954 2.7879,6.8229 2.8612,2.1276 9.0971,2.1276 l 13.6458,0 -2.2743,11.2981 -12.9121,0 q -12.0317,0 -17.9743,-4.6953 -5.8691,-4.6954 -5.8691,-14.2327 0,-1.6874 0.2201,-3.6682 0.2201,-2.0542 0.6603,-4.4752 l 8.7303,-44.6055 -11.4448,0 2.1276,-10.49108 11.2247,0 4.5486,-23.32983 13.499,0 -4.4752,23.32983 26.998,0 z"
         id="path4187"
         inkscape:connector-curvature="0" />
      <path
         d="m 2221.1139,1050.752 q -9.3906,15.7733 -15.3331,19.6616 -5.8692,3.9616 -15.0397,3.9616 l -10.6378,0 2.2743,-11.2981 7.7766,0 q 5.649,0 9.6107,-3.0813 3.9617,-3.0813 8.8771,-12.0317 l 4.1817,-7.85 -18.1943,-79.15998 14.306,0 13.6458,62.94648 37.7092,-62.94648 14.1593,0 -53.3358,89.79788 z"
         id="path4189"
         inkscape:connector-curvature="0" />
      <path
         d="m 2345.9799,933.58926 69.2558,0 -2.421,12.47192 -54.5097,0 -6.3093,32.42699 52.3087,0 -2.421,12.47192 -52.3087,0 -7.6299,39.69001 55.7568,0 -2.421,12.472 -70.6497,0 21.349,-109.53284 z"
         id="path4191"
         inkscape:connector-curvature="0" />
      <path
         d="m 2505.8404,960.95412 -37.7092,40.27698 23.1098,41.891 -15.4799,0 -17.3873,-32.5738 -30.2261,32.5738 -16.3602,0 40.4237,-43.28493 -21.4957,-38.88305 15.4798,0 15.7733,29.71252 27.5116,-29.71252 16.3602,0 z"
         id="path4193"
         inkscape:connector-curvature="0" />
      <path
         d="m 2579.1313,992.50074 q 0,-10.78454 -4.6953,-16.50695 -4.6953,-5.72241 -13.499,-5.72241 -6.0159,0 -11.5182,3.0813 -5.4289,3.08129 -9.6841,8.95043 -4.1817,5.79578 -6.6761,14.01257 -2.4944,8.21682 -2.4944,16.28682 0,10.271 4.6953,15.8467 4.6953,5.5023 13.3523,5.5023 6.3827,0 11.8117,-3.0079 5.5023,-3.0079 9.3906,-8.7303 4.1817,-6.0159 6.7495,-14.1593 2.5677,-8.14347 2.5677,-15.55326 z m -41.8176,-19.0747 q 5.429,-7.11633 12.7654,-10.78454 7.4098,-3.66822 16.4336,-3.66822 12.6186,0 19.5882,8.29016 6.9696,8.2168 6.9696,23.10974 0,12.17842 -4.3285,23.25642 -4.3284,11.0047 -12.4719,19.735 -5.4289,5.7958 -12.2518,8.8771 -6.8229,3.0079 -14.3794,3.0079 -8.7303,0 -14.6728,-3.5948 -5.9425,-3.6682 -8.8771,-10.8579 l -8.4369,43.5783 -13.499,0 22.0826,-113.42108 13.499,0 -2.421,12.47192 z"
         id="path4195"
         inkscape:connector-curvature="0" />
      <path
         d="m 2672.2306,994.70167 q 0.2201,-1.17383 0.2934,-2.42102 0.1468,-1.24719 0.1468,-2.49438 0,-8.95044 -5.2823,-14.1593 -5.2088,-5.20886 -14.2326,-5.20886 -10.0509,0 -17.7542,6.38268 -7.7032,6.30933 -11.6649,17.97424 l 48.4938,-0.0734 z m 11.7383,10.56443 -62.7998,0 q -0.4402,2.7879 -0.587,4.4019 -0.1467,1.614 -0.1467,2.7878 0,10.1976 6.236,15.7733 6.3093,5.5757 17.7541,5.5757 8.8037,0 16.6537,-1.9808 7.85,-1.9809 14.5995,-5.7958 l -2.5678,13.3523 q -7.263,2.9346 -15.0396,4.4018 -7.7033,1.4673 -15.7,1.4673 -17.0938,0 -26.3377,-8.1434 -9.1706,-8.2168 -9.1706,-23.2565 0,-12.8387 4.5486,-23.84334 4.622,-11.078 13.499,-19.73498 5.7225,-5.42896 13.5724,-8.36353 7.9234,-2.93457 16.8004,-2.93457 13.9392,0 22.156,8.36353 8.2902,8.36352 8.2902,22.44946 0,3.37475 -0.4402,7.26306 -0.4402,3.81497 -1.3205,8.21677 z"
         id="path4197"
         inkscape:connector-curvature="0" />
      <path
         d="m 2759.3873,973.42604 q -2.0542,-1.10046 -4.6953,-1.68738 -2.6411,-0.58691 -5.649,-0.58691 -10.7846,0 -18.8547,8.21679 -8.07,8.14343 -10.7111,21.86256 l -8.2902,41.891 -13.499,0 16.0668,-82.16798 13.499,0 -2.5678,12.76538 q 5.3556,-7.11634 12.7654,-10.93128 7.4832,-3.81494 15.92,-3.81494 2.201,0 4.3285,0.29346 2.1276,0.22009 4.2552,0.80701 l -2.5678,13.35229 z"
         id="path4199"
         inkscape:connector-curvature="0" />
      <path
         d="m 2817.8586,960.95412 -2.0542,10.49108 -26.9246,0 -8.7304,44.6055 q -0.4402,2.4943 -0.6603,4.1817 -0.2201,1.6874 -0.2201,2.6411 0,4.6954 2.7879,6.8229 2.8612,2.1276 9.0971,2.1276 l 13.6458,0 -2.2743,11.2981 -12.9121,0 q -12.0317,0 -17.9742,-4.6953 -5.8692,-4.6954 -5.8692,-14.2327 0,-1.6874 0.2201,-3.6682 0.2201,-2.0542 0.6603,-4.4752 l 8.7303,-44.6055 -11.4448,0 2.1276,-10.49108 11.2247,0 4.5486,-23.32983 13.499,0 -4.4752,23.32983 26.998,0 z"
         id="path4201"
         inkscape:connector-curvature="0" />
      <path
         d="m 2888.435,963.37514 -2.5677,12.76538 q -5.3556,-2.93457 -11.2981,-4.40186 -5.9425,-1.46728 -12.2518,-1.46728 -10.6378,0 -16.8004,3.66821 -6.0893,3.59485 -6.0893,9.83081 0,7.26306 14.2327,11.15136 1.1005,0.29346 1.614,0.44019 l 4.3285,1.32055 q 13.499,3.7416 17.9742,7.85 4.5486,4.1084 4.5486,11.2247 0,13.0588 -10.4177,21.2756 -10.3444,8.2168 -27.1448,8.2168 -6.5294,0 -13.7191,-1.2472 -7.1897,-1.2472 -15.8467,-3.8883 l 2.6411,-13.9392 q 7.4098,3.815 14.5995,5.7958 7.1897,1.9808 13.7925,1.9808 9.9042,0 16.0668,-4.2551 6.2359,-4.2551 6.2359,-10.7845 0,-7.043 -16.2868,-11.3715 l -1.3939,-0.3668 -4.622,-1.1738 q -10.271,-2.7145 -15.0397,-7.11637 -4.7686,-4.47522 -4.7686,-11.37146 0,-13.1322 9.8308,-20.83544 9.9041,-7.70325 26.8513,-7.70325 6.6761,0 12.9855,1.10047 6.3826,1.10046 12.5452,3.30139 z"
         id="path4203"
         inkscape:connector-curvature="0" />
    </g>
  </g>
</svg>
