<?xml version="1.0" encoding="UTF-8" standalone="no"?>
<!-- Created with Inkscape (http://www.inkscape.org/) -->

<svg
   xmlns:dc="http://purl.org/dc/elements/1.1/"
   xmlns:cc="http://creativecommons.org/ns#"
   xmlns:rdf="http://www.w3.org/1999/02/22-rdf-syntax-ns#"
   xmlns:svg="http://www.w3.org/2000/svg"
   xmlns="http://www.w3.org/2000/svg"
   xmlns:sodipodi="http://sodipodi.sourceforge.net/DTD/sodipodi-0.dtd"
   xmlns:inkscape="http://www.inkscape.org/namespaces/inkscape"
   width="1657mm"
   height="203mm"
   viewBox="0 0 5871.2503 719.29126"
   id="svg2"
   version="1.1"
   inkscape:version="0.91 r13725"
   sodipodi:docname="Logo_f.svg">
  <defs
     id="defs4" />
  <sodipodi:namedview
     id="base"
     pagecolor="#ffffff"
     bordercolor="#666666"
     borderopacity="1.0"
     inkscape:pageopacity="0.0"
     inkscape:pageshadow="2"
     inkscape:zoom="0.0625"
     inkscape:cx="-3513.7029"
     inkscape:cy="-1755.7478"
     inkscape:document-units="px"
     inkscape:current-layer="layer2"
     showgrid="false"
     inkscape:window-width="1366"
     inkscape:window-height="709"
     inkscape:window-x="0"
     inkscape:window-y="0"
     inkscape:window-maximized="1" />
  <metadata
     id="metadata7">
    <rdf:RDF>
      <cc:Work
         rdf:about="">
        <dc:format>image/svg+xml</dc:format>
        <dc:type
           rdf:resource="http://purl.org/dc/dcmitype/StillImage" />
        <dc:title></dc:title>
      </cc:Work>
    </rdf:RDF>
  </metadata>
  <g
     inkscape:groupmode="layer"
     id="layer2"
     inkscape:label="Layer 2"
     transform="translate(0,-333.07101)">
    <path
       style="fill:#ffffff;fill-opacity:1;stroke:none;stroke-width:1;stroke-miterlimit:4;stroke-dasharray:none;stroke-opacity:1"
       d="m 498.87185,338.41745 c -12.25687,0 -22.12409,9.86836 -22.12409,22.12519 l 0,64.37466 129.05815,87.11426 0,-151.48892 c 0,-12.25683 -9.86726,-22.12519 -22.12412,-22.12519 z m 189.33392,301.48236 c 24.15104,-0.2739 26.88675,-17.3188 8.36546,-29.75546 L 372.10664,392.27466 c -3.74191,-2.5126 -8.74577,-3.64649 -13.71763,-3.72529 -0.33874,-0.0106 -0.67855,-0.0177 -1.01778,-0.0177 l 0,-4e-5 c -5.14141,0 -10.28318,1.24509 -14.22283,3.73376 L 12.232907,610.13507 c -18.8613751,11.91458 -15.7881887,29.79578 8.364407,29.75644 l 30.891013,-0.05 c 8.976653,0 11.048701,3.88758 11.048701,10.58252 0,101.73408 -0.03813,217.19526 0.05428,339.48867 0.618839,18.5003 14.78497,35.4075 32.885203,39.2669 10.405269,2.1405 21.128279,0.6282 31.664859,1.0828 l 140.81179,0 c 0.0566,-65.65394 -0.11434,-131.31319 0.0855,-196.96397 0.78758,-18.27061 15.60465,-34.61779 33.69288,-37.26071 11.29784,-1.18974 22.72134,-0.22855 34.06792,-0.53876 21.73657,0.14138 43.49201,-0.28134 65.21699,0.20905 18.41113,1.53053 34.25587,17.19394 35.98887,35.58451 0.60856,18.55152 0.0868,37.14598 0.26043,55.71397 l 0,143.25591 c 57.35144,-0.06 112.55737,0.1205 169.90551,-0.089 18.67341,-0.8455 35.5236,-15.5176 38.95484,-33.8875 1.77342,-10.2795 0.44975,-20.79325 0.85914,-31.16699 l -0.86046,-314.69517 c 0,-6.69494 2.07199,-10.58248 11.04864,-10.58248 z m -415.03865,-87.3905 65.31155,0 0,60.31747 -65.31155,0 z m 96.02483,0 65.31151,0 0,60.31747 -65.31151,0 z m -96.02483,95.64144 65.31155,0 0,60.3175 -65.31155,0 z m 96.02483,0 65.31151,0 0,60.3175 -65.31151,0 z"
       id="rect4220"
       inkscape:connector-curvature="0"
       sodipodi:nodetypes="ssccssscsscccccsccccccccccccccccccccccccccccccccccccccc" />
    <g
       style="font-style:normal;font-variant:normal;font-weight:normal;font-stretch:normal;font-size:366.64666748px;line-height:125%;font-family:Broadway;-inkscape-font-specification:'Broadway, Normal';text-align:start;letter-spacing:0px;word-spacing:0px;writing-mode:lr-tb;text-anchor:start;fill:#ffffff;fill-opacity:1;stroke:none;stroke-width:1px;stroke-linecap:butt;stroke-linejoin:miter;stroke-opacity:1"
       id="text4142"
       transform="matrix(1.7019189,0,0,1.7019189,-369.12207,-13.447817)">
      <path
         d="m 1087.6212,496.15439 q -1.0741,53.17093 -34.0151,88.79724 -18.4397,19.87197 -43.8615,30.97162 -25.24276,10.92063 -52.45481,10.92063 -23.63153,0 -46.54694,-8.95134 -22.91542,-8.95133 -40.63906,-25.06373 -22.73639,-20.7671 -33.65702,-49.94845 -8.59328,-23.27347 -8.59328,-46.18889 0,-42.60835 26.31692,-77.33953 18.0817,-24.1686 45.47278,-37.77463 27.39109,-13.78506 57.46757,-13.78506 52.81284,0 90.94554,36.34242 17.0076,16.29143 17.0076,23.09445 0,2.32734 -1.9693,3.93858 -1.7903,1.61124 -4.4757,1.61124 -4.1176,0 -8.7723,-6.26593 -35.9844,-47.80013 -92.37779,-47.80013 -6.80301,0 -13.78505,0.89514 l -0.89514,127.10895 0.89514,107.95309 q 6.62399,1.25319 13.427,1.25319 20.23002,0 39.20685,-6.80301 47.97919,-17.00754 68.92529,-62.48032 8.9513,-19.15586 10.5626,-39.02782 l -93.45198,0 q -12.35284,-0.35805 -14.85921,-1.25319 -2.50638,-0.89513 -2.50638,-4.65469 0,-5.72885 8.59329,-5.72885 l 10.7416,0.17902 103.29838,0 z"
         id="path4245"
         inkscape:connector-curvature="0"
         style="fill:#ffffff;fill-opacity:1" />
      <path
         d="m 1226.725,375.13235 -0.7161,37.41658 -0.7162,59.61589 0.1791,43.50348 0.7161,92.19875 12.8899,0.17903 76.6234,-1.07416 13.9641,-0.17903 q 10.5626,0 10.5626,6.26593 0,5.54983 -5.7289,6.08691 -1.2532,0.17903 -8.2352,0.35805 l -209.6403,0 0.5371,-68.03014 0.3581,-41.71322 0.358,-47.26305 -0.7161,-71.96873 0.179,-15.39629 109.3854,0 z"
         id="path4247"
         inkscape:connector-curvature="0"
         style="fill:#ffffff;fill-opacity:1" />
      <path
         d="m 1471.0964,453.54604 q -0.358,8.23523 -0.358,20.05099 l 0,10.7416 1.2531,123.52842 60.6901,-0.71611 42.9664,-0.53708 q 10.5626,0 10.5626,6.44496 0,5.3708 -5.3708,6.08691 -1.2532,0.17903 -14.8592,0.35805 l -203.3744,0 0.1791,-9.30938 0.179,-59.79492 0.7161,-64.09156 -1.4322,-111.17557 189.7683,0 q 12.7109,0 14.5011,0.53708 4.1176,1.07416 4.1176,6.08691 0,6.26593 -7.8771,6.26593 l -1.2532,0 -89.6924,-1.25319 -0.7161,55.49828 19.5139,0.17902 62.6594,-1.07416 13.785,-0.17902 q 7.5191,0 9.8465,1.25318 2.5064,1.25319 2.5064,5.01275 0,6.98204 -11.8158,6.98204 l -14.1431,-0.35805 -82.3523,-0.53708 z"
         id="path4249"
         inkscape:connector-curvature="0"
         style="fill:#ffffff;fill-opacity:1" />
      <path
         d="m 1827.3595,494.00607 0,-29.89746 -0.3581,-47.44207 -0.179,-21.66223 -0.179,-13.60603 q 0,-9.66744 6.624,-9.66744 3.9385,0 5.3708,2.32735 1.6112,2.14832 1.6112,8.41425 l 0,2.50638 q -0.179,3.75956 -0.179,12.35284 l -0.7161,60.33199 -0.5371,55.31925 0.5371,58.18368 0.7161,58.3627 q -36.8795,-23.09444 -107.9531,-63.7335 -71.0736,-40.81809 -115.1142,-64.09156 l 0.179,8.77231 1.7903,92.37777 0.179,12.35284 q 0,7.69815 -7.161,7.69815 -7.3401,0 -7.3401,-9.48841 l 0.179,-12.53187 0.179,-20.23002 0.7161,-91.84069 -1.4322,-123.70745 q 72.5058,44.9357 223.0673,128.89922 z"
         id="path4251"
         inkscape:connector-curvature="0"
         style="fill:#ffffff;fill-opacity:1" />
      <path
         d="m 1877.845,375.13235 94.1681,0 q 36.8795,0 55.4983,3.58053 46.0098,8.77231 74.296,49.05332 22.1993,31.68772 22.1993,69.82041 0,38.84879 -22.9154,70.71554 -27.5701,38.49074 -71.9687,47.80013 -11.4577,2.32734 -20.409,2.86442 -8.9514,0.53708 -39.3859,0.53708 l -90.9456,0 0.5371,-118.15761 -1.0742,-126.21382 z m 109.3853,11.45771 -0.8951,143.93746 1.0742,77.51856 q 23.9896,-0.17903 34.3731,-1.79027 10.5626,-1.79027 24.1686,-7.69815 32.0458,-13.78505 50.3065,-44.39862 15.9334,-26.31692 15.9334,-56.93049 0,-33.29896 -18.7978,-61.22713 -33.478,-49.59039 -99.1808,-49.59039 l -6.9821,0.17903 z"
         id="path4253"
         inkscape:connector-curvature="0"
         style="fill:#ffffff;fill-opacity:1" />
      <path
         d="m 2262.9315,360.45216 143.2213,259.05162 -124.0655,0 -17.0075,-32.76188 -60.153,0 -52.9919,-0.17903 -8.9513,-0.17902 -11.8158,21.84125 q -5.1918,9.84647 -7.3401,12.17382 -1.9693,2.50637 -5.0127,2.50637 -6.0869,0 -6.0869,-5.3708 0,-2.32735 3.4015,-8.59328 3.5805,-6.44496 24.5266,-41.89225 l 108.3112,-182.4282 13.9641,-24.1686 z m -55.6773,117.26248 -31.3297,52.81288 -25.0638,43.50348 53.7081,0.71611 53.887,-0.53708 -51.2016,-96.49539 z"
         id="path4255"
         inkscape:connector-curvature="0"
         style="fill:#ffffff;fill-opacity:1" />
      <path
         d="m 2532.9037,375.13235 -0.7161,37.41658 -0.7161,59.61589 0.179,43.50348 0.7161,92.19875 12.89,0.17903 76.6234,-1.07416 13.9641,-0.17903 q 10.5626,0 10.5626,6.26593 0,5.54983 -5.7289,6.08691 -1.2532,0.17903 -8.2352,0.35805 l -209.6403,0 0.5371,-68.03014 0.358,-41.71322 0.3581,-47.26305 -0.7161,-71.96873 0.179,-15.39629 109.3853,0 z"
         id="path4257"
         inkscape:connector-curvature="0"
         style="fill:#ffffff;fill-opacity:1" />
      <path
         d="m 2777.2752,453.54604 q -0.3581,8.23523 -0.3581,20.05099 l 0,10.7416 1.2532,123.52842 60.6901,-0.71611 42.9664,-0.53708 q 10.5625,0 10.5625,6.44496 0,5.3708 -5.3708,6.08691 -1.2531,0.17903 -14.8592,0.35805 l -203.3743,0 0.179,-9.30938 0.1791,-59.79492 0.7161,-64.09156 -1.4323,-111.17557 189.7683,0 q 12.7109,0 14.5012,0.53708 4.1176,1.07416 4.1176,6.08691 0,6.26593 -7.8772,6.26593 l -1.2531,0 -89.6924,-1.25319 -0.7161,55.49828 19.5139,0.17902 62.6593,-1.07416 13.7851,-0.17902 q 7.5191,0 9.8465,1.25318 2.5063,1.25319 2.5063,5.01275 0,6.98204 -11.8157,6.98204 l -14.1431,-0.35805 -82.3523,-0.53708 z"
         id="path4259"
         inkscape:connector-curvature="0"
         style="fill:#ffffff;fill-opacity:1" />
    </g>
    <rect
       style="fill:#2780e3;fill-opacity:1;stroke:none;stroke-width:1;stroke-miterlimit:4;stroke-dasharray:none;stroke-opacity:1"
       id="rect4196"
       width="56.651806"
       height="421.08243"
       x="839.27167"
       y="622.79468" />
  </g>
</svg>
