<?xml version="1.0" encoding="UTF-8" standalone="no"?>
<!-- Created with Inkscape (http://www.inkscape.org/) -->

<svg
   xmlns:dc="http://purl.org/dc/elements/1.1/"
   xmlns:cc="http://creativecommons.org/ns#"
   xmlns:rdf="http://www.w3.org/1999/02/22-rdf-syntax-ns#"
   xmlns:svg="http://www.w3.org/2000/svg"
   xmlns="http://www.w3.org/2000/svg"
   xmlns:sodipodi="http://sodipodi.sourceforge.net/DTD/sodipodi-0.dtd"
   xmlns:inkscape="http://www.inkscape.org/namespaces/inkscape"
   width="200"
   height="200"
   viewBox="0 0 52.916665 52.916668"
   version="1.1"
   id="svg3055"
   inkscape:version="0.92.3 (2405546, 2018-03-11)"
   sodipodi:docname="phone_b.svg">
  <defs
     id="defs3049" />
  <sodipodi:namedview
     id="base"
     pagecolor="#ffffff"
     bordercolor="#666666"
     borderopacity="1.0"
     inkscape:pageopacity="0.0"
     inkscape:pageshadow="2"
     inkscape:zoom="1"
     inkscape:cx="40.18381"
     inkscape:cy="93.095157"
     inkscape:document-units="mm"
     inkscape:current-layer="layer1"
     showgrid="false"
     units="px"
     inkscape:window-width="1920"
     inkscape:window-height="1146"
     inkscape:window-x="0"
     inkscape:window-y="0"
     inkscape:window-maximized="1" />
  <metadata
     id="metadata3052">
    <rdf:RDF>
      <cc:Work
         rdf:about="">
        <dc:format>image/svg+xml</dc:format>
        <dc:type
           rdf:resource="http://purl.org/dc/dcmitype/StillImage" />
        <dc:title></dc:title>
      </cc:Work>
    </rdf:RDF>
  </metadata>
  <g
     inkscape:label="Layer 1"
     inkscape:groupmode="layer"
     id="layer1"
     transform="translate(0,-244.08332)"
     style="display:inline">
    <path
       style="fill:#373a3c;fill-opacity:1;stroke-width:0.07310723"
       d="m 23.613551,296.89502 c -5.01722,-0.54657 -9.70724,-2.48414 -13.7095803,-5.6638 -1.19798,-0.95172 -3.14783,-2.89727 -4.10427,-4.09518 -3.21211,-4.0231 -5.15541995,-8.74987 -5.68993995,-13.83981 -0.14635,-1.39356 -0.14635,-4.10729 0,-5.50084 0.53452,-5.08994 2.47782995,-9.81672 5.68993995,-13.83981 0.95644,-1.19792 2.90629,-3.14346 4.10427,-4.09519 4.0387203,-3.20856 8.7306603,-5.13434 13.8083603,-5.66758 1.39356,-0.14634 4.10729,-0.14634 5.50084,0 5.08236,0.53373 9.76594,2.45608 13.80837,5.66758 1.19797,0.95173 3.14783,2.89727 4.10426,4.09519 3.28838,4.11861 5.25787,9.00973 5.7317,14.23431 0.11566,1.27523 0.0524,4.64612 -0.10868,5.79196 -0.69397,4.93647 -2.57479,9.33635 -5.62302,13.15419 -0.94333,1.18151 -2.89576,3.13302 -4.08251,4.08061 -4.00987,3.20177 -8.73564,5.14271 -13.83902,5.68387 -1.27727,0.13545 -4.32441,0.13245 -5.59072,-0.006 z m 10.48232,-8.19282 c 2.58788,-0.48771 4.86225,-2.43173 5.67517,-4.85088 0.28343,-0.84343 0.10861,-1.93701 -0.44127,-2.76047 -0.5448,-0.81584 -0.72488,-0.88442 -4.53279,-1.72638 -2.88899,-0.63878 -3.43902,-0.72494 -4.67887,-0.73297 -0.87371,-0.006 -1.18273,0.0178 -1.34964,0.10232 -0.32998,0.16715 -0.71937,0.73216 -1.32497,1.92253 l -0.55037,1.08179 -0.78177,-0.41623 c -1.24988,-0.66547 -1.74717,-0.96211 -2.71629,-1.62028 -2.28061,-1.54888 -4.03569,-3.23595 -5.77032,-5.54672 -0.71173,-0.94813 -1.97135,-2.92014 -1.90171,-2.97725 0.0162,-0.0133 0.4615,-0.27934 0.9895,-0.5912 1.13917,-0.67283 1.66293,-1.1069 1.78616,-1.48029 0.14229,-0.43115 0.0397,-1.9318 -0.21647,-3.16612 -0.43271,-2.08497 -1.45213,-5.89395 -1.7177,-6.41803 -0.46893,-0.92539 -1.59836,-1.46016 -2.9356,-1.38998 -0.49373,0.0259 -0.68933,0.0763 -1.15601,0.29796 -1.18767,0.56402 -2.24931,1.46929 -2.9394403,2.50648 -1.03234,1.55152 -1.46671,3.24384 -1.39687,5.44222 0.0728,2.29121 0.53861,4.03462 1.72869,6.46999 1.8115603,3.70714 4.8503403,7.16466 9.0308603,10.27527 4.57452,3.40378 8.73205,5.32635 12.31856,5.69649 0.77665,0.0802 2.12121,0.025 2.88115,-0.11825 z m 10.68602,-17.31273 c 0.10487,-0.0687 0.25522,-0.27087 0.33413,-0.44924 0.14295,-0.32316 0.14292,-0.32754 -0.008,-1.21838 -1.3971,-8.24189 -7.31442,-14.68048 -15.37049,-16.72452 -1.14418,-0.29031 -2.41175,-0.501 -3.34989,-0.55681 -0.64175,-0.0382 -0.80941,-0.0253 -1.00845,0.0777 -0.61015,0.31552 -0.70292,1.19607 -0.17624,1.67271 0.15273,0.13822 0.43442,0.19387 1.95095,0.38541 2.70193,0.34127 5.56598,1.40562 7.86956,2.92453 1.00767,0.66442 1.726,1.24817 2.68786,2.18428 2.86334,2.78669 4.69046,6.32521 5.41404,10.48518 0.15051,0.86533 0.22145,1.00864 0.62735,1.26728 0.26107,0.16635 0.73584,0.14417 1.02928,-0.0481 z m -11.00155,-0.29891 c 0.29877,-0.1545 0.50428,-0.51608 0.50461,-0.88782 5.3e-4,-0.38466 -0.41131,-1.65352 -0.76828,-2.36809 -1.23467,-2.47152 -3.33401,-4.19311 -6.0199,-4.93669 -1.27971,-0.35428 -1.8077,-0.29504 -2.13832,0.23992 -0.12412,0.20082 -0.14882,0.32976 -0.12023,0.62737 0.03,0.31245 0.079,0.41404 0.29538,0.61232 0.15452,0.14161 0.37262,0.25662 0.53945,0.28448 1.07775,0.18 2.33972,0.66555 3.14425,1.20978 1.42408,0.96334 2.48869,2.45948 2.9834,4.19269 0.10233,0.35853 0.22666,0.70107 0.27628,0.7612 0.29666,0.35946 0.88801,0.47963 1.30336,0.26484 z m 5.40993,-0.0731 c 0.30074,-0.15551 0.50429,-0.51585 0.50462,-0.89328 0.001,-1.29173 -1.17697,-4.40379 -2.30349,-6.08491 -1.80332,-2.6911 -4.31568,-4.68864 -7.30984,-5.81194 -0.93638,-0.3513 -2.43465,-0.72916 -3.33967,-0.84226 -0.64952,-0.0812 -0.73042,-0.0772 -0.98223,0.0479 -0.53154,0.26408 -0.74535,0.84919 -0.48873,1.33741 0.20897,0.39754 0.43308,0.51263 1.23178,0.63251 1.54304,0.23161 2.64151,0.57022 4.01749,1.23839 3.6636,1.77905 6.15509,4.97346 7.07558,9.07179 0.10033,0.44669 0.22105,0.88435 0.26828,0.97258 0.21212,0.39636 0.87885,0.56318 1.32621,0.33183 z"
       id="path3122"
       inkscape:connector-curvature="0"
       sodipodi:nodetypes="cssccssccsssscscccccssccsccsscscscscsssssccccssssscsscccccssccssscccccsssccssscc" />
  </g>
  <g
     inkscape:groupmode="layer"
     id="layer2"
     inkscape:label="mobile"
     style="display:none">
    <path
       style="fill:#2780e3;fill-opacity:1;stroke-width:0.07305958"
       d="m 42.183284,47.775343 c -3.50138,2.54983 -7.37593,4.16098 -11.6111,4.8282 -4.617,0.72737 -9.21357,0.23665 -13.61997,-1.45406 -2.82245,-1.08295 -5.15676,-2.4513 -7.5825404,-4.4448 -1.0244,-0.84184 -3.79387,-3.85923 -4.54502,-4.95187 -1.77873,-2.58739 -2.94242,-5.03017 -3.78002,-7.9349 -0.83618,-2.89982 -1.14343,-5.4648 -1.01744,-8.49366 0.24474,-5.88367 2.33072,-11.26478 6.18478,-15.9545797 0.84185,-1.0244 3.8592404,-3.79387 4.9518804,-4.54502 3.49092,-2.39987 7.15069,-3.87663997 11.18063,-4.51152997 4.617,-0.72737 9.21357,-0.23665 13.61997,1.45405997 2.82245,1.08295 5.15676,2.4513 7.58254,4.44479 1.0244,0.84185 3.79387,3.8592397 4.54502,4.9518797 1.77873,2.58738 2.94242,5.03017 3.78002,7.9349 0.83617,2.89982 1.14343,5.4648 1.01744,8.49365 -0.24353,5.85466 -2.32956,11.25782 -6.13775,15.89779 -0.74949,0.9132 -3.56639,3.55543 -4.56844,4.28515 z m -0.32788,-13.74906 c 0.23199,-0.5645 0.27903,-1.28837 0.12392,-1.90699 l -0.12606,-0.5028 -9.58409,-10.44203 -9.58407,-10.442 -0.42673,-0.17537 c -0.59589,-0.24489 -1.32721,-0.28295 -1.94685,-0.10134 l -0.51451,0.15081 -4.68502,4.30008 -4.68501,4.30009 -0.19426,0.49972 c -0.2339504,0.60184 -0.2585704,1.33373 -0.0655,1.94838 l 0.13823,0.44018 9.55937,10.41509 9.55936,10.41509 0.42356,0.17404 c 0.74957,0.30798 1.64195,0.29252 2.35505,-0.0408 0.23505,-0.10987 1.19344,-0.96747 4.88484,-4.37105 l 4.59243,-4.23436 z m -5.55486,4.47989 c -0.36722,0.154 -0.52885,0.15247 -0.89828,-0.008 -0.7431,-0.32378 -0.88009,-1.29288 -0.26284,-1.85941 0.20571,-0.1888 0.63732,-0.27535 1.01242,-0.203 0.35046,0.0676 0.77094,0.52642 0.80731,0.88075 0.0528,0.51581 -0.21808,1.00535 -0.65852,1.19006 z m -6.46604,1.89486 c -0.31157,0.15629 -0.84309,0.13972 -1.13021,-0.0352 -0.15258,-0.093 -2.95667,-3.12195 -8.39322,-9.06635 l -8.1641,-8.92674 -0.0315,-0.34572 c -0.0581,-0.63729 -0.32135,-0.36223 4.93787,-5.1601 4.69743,-4.28537 4.74798,-4.32944 4.99593,-4.35461 0.13777,-0.014 0.36181,-0.004 0.49788,0.0214 0.24726,0.0468 0.25185,0.0516 8.51518,9.02672 l 8.26779,8.97993 0.0754,0.34953 c 0.15162,0.70275 0.45937,0.36779 -4.73976,5.15891 -2.92182,2.69256 -4.68006,4.2765 -4.83124,4.35233 z m -16.20817,-22.19698 c -0.0974,-0.10606 -0.0629,-0.14058 2.34447,-2.35017 2.04643,-1.87829 2.45921,-2.2346 2.5415,-2.19363 0.054,0.0269 0.097,0.0767 0.0956,0.1106 -0.002,0.0339 -1.10066,1.06951 -2.44269,2.30128 -2.40418,2.20664 -2.44149,2.23801 -2.53887,2.13192 z m 6.15206,25.50934 c 0.0512,-0.14667 0.0616,-0.38982 0.0232,-0.54033 -0.12104,-0.47338 -0.304,-0.59593 -1.22404,-0.81986 -1.64328,-0.39995 -2.86239,-0.91573 -4.12052,-1.74328 -3.11171,-2.04678 -5.0241704,-5.41714 -5.2747504,-9.29583 -0.0525,-0.81267 -0.18214,-1.07246 -0.62219,-1.24689 -0.43949,-0.1742 -0.7903,-0.0897 -1.09856,0.26465 -0.26777,0.30779 -0.29154,0.4789 -0.20935,1.50738 0.27575,3.45055 1.84735,6.72367 4.3213504,8.99995 0.93197,0.85748 1.64588,1.37401 2.72353,1.97052 1.28909,0.71355 2.75719,1.25868 4.05181,1.50449 0.78264,0.1486 1.23415,-0.0412 1.42957,-0.6008 z m 24.40004,-22.35908 c 0.1715,-0.46843 -0.17936,-2.41883 -0.69774,-3.87865 -1.16661,-3.2853 -3.41693,-5.91313 -6.46515,-7.5497397 -1.5009,-0.80585 -3.58742,-1.45254 -4.97842,-1.543 l -0.66878,-0.0435 -0.28213,0.3056 c -0.39073,0.42325 -0.41242,0.81215 -0.0698,1.25168 0.21708,0.2784797 0.27698,0.3140797 0.63534,0.3775797 2.67051,0.47323 4.26907,1.10694 6.00855,2.38198 0.83857,0.61466 2.37755,2.32342 2.9093,3.23024 0.83939,1.43144 1.3569,2.88927 1.61783,4.55735 0.13217,0.84495 0.18595,1.02481 0.36459,1.21944 0.48627,0.52981 1.38159,0.35971 1.62641,-0.30899 z m -23.70808,18.1007 c 0.17063,-0.36969 0.11946,-0.80711 -0.12533,-1.07129 -0.16385,-0.17696 -0.37444,-0.27269 -1.00713,-0.45825 -1.41194,-0.41409 -2.35397,-0.93032 -3.40792,-1.86754 -1.46175,-1.29986 -2.32663,-3.00631 -2.64687,-5.22242 -0.1296,-0.89683 -0.23933,-1.09324 -0.70084,-1.25439 -0.29868,-0.10429 -0.73961,-0.0215 -0.95935,0.18023 -0.36238,0.3326 -0.3997,0.65182 -0.21282,1.82011 0.32456,2.02909 1.16366,3.75866 2.56707,5.2913 1.12843,1.23217 2.35651,2.05677 3.95107,2.65252 1.1217,0.41909 1.71936,0.53364 2.04478,0.39191 0.32193,-0.14021 0.36885,-0.18381 0.49734,-0.46218 z m 19.23234,-17.77845 c 0.0667,-0.25504 -0.11857,-1.35875 -0.35864,-2.13641 -1.11772,-3.62064 -4.115,-6.3128 -7.82308,-7.02672 -0.78542,-0.15122 -1.06223,-0.0971 -1.36589,0.26722 -0.33899,0.40668 -0.25792,1.111 0.16179,1.40561 0.0995,0.0699 0.44664,0.17873 0.77139,0.24197 3.50255,0.68203 6.05186,3.33038 6.65771,6.91637 0.10933,0.64708 0.30236,0.90988 0.74824,1.01864 0.55771,0.13604 1.06932,-0.15466 1.20848,-0.68668 z"
       id="path3186"
       inkscape:connector-curvature="0"
       sodipodi:nodetypes="cssccssssssccssscccccccscccscccccccccccsccccccsccsccsccccccsccscccccssccssccccasscccccccsccccsscssccscccsscccsac" />
  </g>
</svg>
